<?xml version="1.0" encoding="utf-8"?>
<!-- Generator: Adobe Illustrator 23.0.1, SVG Export Plug-In . SVG Version: 6.00 Build 0)  -->
<svg version="1.1" id="a9e2140f-2503-486f-a58e-a2bc7ab9d16b"
	 xmlns="http://www.w3.org/2000/svg" xmlns:xlink="http://www.w3.org/1999/xlink" x="0px" y="0px" viewBox="0 0 1004.7 840.1"
	 style="enable-background:new 0 0 1004.7 840.1;" xml:space="preserve">
<style type="text/css">
	.st0{opacity:0.1;fill:#E22A7F;enable-background:new    ;}
	.st1{opacity:0.1;fill:#E24091;enable-background:new    ;}
	.st2{fill:#D4E4F9;}
	.st3{fill:#E24091;}
	.st4{fill:#3F3D56;}
	.st5{fill:#DB338F;}
	.st6{fill:url(#SVGID_1_);}
	.st7{fill:#6C63FF;}
	.st8{opacity:0.2;fill:#FFFFFF;enable-background:new    ;}
	.st9{opacity:7.000000e-02;fill:#FFFFFF;enable-background:new    ;}
	.st10{fill:#535461;}
	.st11{fill:#925978;}
	.st12{opacity:0.2;enable-background:new    ;}
	.st13{fill:#444053;}
	.st14{opacity:5.000000e-02;enable-background:new    ;}
	.st15{fill:#F8BDC5;}
	.st16{opacity:0.1;enable-background:new    ;}
	.st17{opacity:0.1;}
	.st18{fill:#FF6484;}
	.st19{fill:#ED5199;}
	.st20{fill:#FFFFFF;}
	.st21{fill:#E6E6E6;}
	.st22{fill:#FF6584;}
</style>
<ellipse class="st0" cx="503.1" cy="764.8" rx="495.6" ry="45.2"/>
<ellipse class="st1" cx="855.4" cy="769.8" rx="104.3" ry="5.3"/>
<title>thought_process</title>
<path class="st2" d="M919.8,532.5c-4.9,41.7-15,75.1-28.8,101.8c-18.5,35.5-50,49.9-78.2,64.9c-8.1,4.3-16.6,8-25.3,11
	c-51.3,17.8-108.8,13.1-153.9,3.7c-31.6-6.6-63.8-10.7-96.1-12.1c-9.2-0.4-18.4-0.6-27.7-0.6c-14.2,0-270.5,4.9-332.8-121.4
	c-15.4-31.2-26-69.2-29.8-115.6C136.5,333,195.5,246.9,271.5,190.6c143.9-106.5,341.2-102,483,7.3
	C849.1,270.6,937.5,380.8,919.8,532.5z"/>
<g>
	<path class="st3" d="M702.8,566.5c0,69.2-41.1,93.3-91.8,93.3s-91.8-24.1-91.8-93.3S611,409.4,611,409.4S702.8,497.4,702.8,566.5z"
		/>
	<polygon class="st4" points="607.6,649.2 608.5,591.4 647.7,519.8 608.7,582.3 609.1,556.3 636.1,504.5 609.2,549.4 609.2,549.4 
		610,502.6 638.9,461.3 610.1,495.2 610.6,409.4 607.6,523 607.8,518.3 578.5,473.4 607.4,527.3 604.6,579.6 604.5,578.2 
		570.7,530.9 604.4,583.1 604.1,589.6 604,589.7 604.1,590.3 597.1,722.9 606.4,722.9 607.5,654.4 641.2,602.3 	"/>
</g>
<g>
	<path class="st5" d="M543.5,487.2c0,104.2-62,140.6-138.4,140.6s-138.4-36.4-138.4-140.6s138.4-236.9,138.4-236.9
		S543.5,382.9,543.5,487.2z"/>
	<polygon class="st4" points="400,611.9 401.4,524.6 460.4,416.7 401.7,510.9 402.3,471.7 443,393.6 402.5,461.3 402.5,461.3 
		403.6,390.8 447.1,328.6 403.8,379.7 404.5,250.3 400,421.6 400.4,414.5 356.1,346.7 399.7,428.1 395.5,506.9 395.4,504.8 
		344.4,433.5 395.3,512.2 394.7,522 394.6,522.2 394.7,523 384.2,722.9 398.2,722.9 399.9,619.6 450.6,541.1 	"/>
</g>
<g>
	<path class="st3" d="M338.6,460.2c0,123.1-73.2,166.1-163.5,166.1s-163.5-43-163.5-166.1s163.5-279.7,163.5-279.7
		S338.6,337.1,338.6,460.2z"/>
	<polygon class="st4" points="169.2,607.5 170.9,504.4 240.5,377 171.1,488.3 171.9,442 219.9,349.7 172.1,429.7 172.1,429.7 
		173.4,346.4 224.9,273 173.7,333.3 174.5,180.5 169.2,382.8 169.6,374.4 117.3,294.4 168.8,390.4 163.9,483.5 163.8,481 
		103.5,396.8 163.6,489.7 163,501.4 162.9,501.5 162.9,502.5 150.6,738.6 167.1,738.6 169.1,616.6 229,523.9 	"/>
</g>
<ellipse class="st1" cx="518.6" cy="772.9" rx="121.8" ry="19.4"/>
<g>
	
		<linearGradient id="SVGID_1_" gradientUnits="userSpaceOnUse" x1="634.45" y1="2023.3651" x2="634.45" y2="1276.8405" gradientTransform="matrix(1 0 0 1 -63 -1238.5)">
		<stop  offset="0" style="stop-color:#808080;stop-opacity:0.25"/>
		<stop  offset="0.54" style="stop-color:#808080;stop-opacity:0.12"/>
		<stop  offset="1" style="stop-color:#808080;stop-opacity:0.1"/>
	</linearGradient>
	<path class="st6" d="M755.3,230.3l-38.6-112l-13.9,2.1l-12.4,1.6c0.3-4.2,0.9-19.3-6.8-27.3c-0.7-2.7-2.7-5.8-6.5-9.3
		c-18.5-16.9-22.3,17.7-22.3,17.7s-4.2,7.3-10,17.5l-3-0.6l-0.9,7.5c-12.8,22.7-29.9,53.4-29.9,56.3c0,4.6-2.3,10.8-2.3,10.8
		s-13.1,21.5-17.7,32.3c-2.7,6.4-6.6,12.1-11.6,16.9c0,0-1.1,0.9-2.9,2.1c0.1-2,0.5-4.1,1.1-6c1.7-5.5,5.6-10.2,6.6-15.9
		c0.2-1.4,0.3-2.7,0.3-4.1c0.2-6.6-3-13.2-4.3-19.8c-1.6-7.7-0.7-16.2-4.8-22.9c-3.2-5.1-8.8-8.3-14.6-9.7c-5.3-1.3-10.6-0.9-16-1.4
		c-4.9-0.5-9.7-2.7-14.6-3.5c-2.6-0.6-5.4-0.6-8,0c-8.4,2.3-11,12.9-17.5,18.7c-2.3,2.1-5.2,3.6-7.3,5.9c-3.1,3.4-4.1,8-4,12.6
		c0,1.5,0.1,3.1,0.3,4.6c0.8,5.5,2.9,10.7,4.2,16.1c1,4,1.5,8.1,1.6,12.2c0,0.9,0,1.9-0.1,2.8c0,1.9-0.5,3.7-1.4,5.3
		c-1.2,1.6-3.1,2.4-4.8,3.4c-5.6-4.5-9.8-10.4-12.1-17.2c0,0-0.3,0.4-0.8,1.1V227c0,0-10.5-15.5-12.1-28.1l3.7,0.4L480,80.8
		l-21.5-3.2c-0.6-6.1-2.2-15-6.6-21.5c3.6-7.1,5.4-16.8-10.4-17.7c-18.5-1.1-17.4,13.3-15.4,21.2c-0.9,4.3-1.2,8.7-1.1,13.1l-19-2.8
		l-0.1,1.5h-4.5l-13.8,120.9l11.7-0.6l43.1,4.5c3.4,31.3,8.9,70,15.3,79.1c0.2,0.3,0.4,0.6,0.7,0.9v55.4c0,0-0.8,71.6-13.9,83.1
		c8-2.9,16.5-4.2,25-3.9c-0.1,0.5-0.3,1-0.4,1.5c-1.9,7.1-3.3,14.3-4,21.6c-0.2,1.6-0.3,3.3-0.5,5c-1.2,16-1,32.1,0.7,48.1
		c5.4,56.9,13.9,97.7,13.9,97.7l2.4,33.1c0,0-2.3,56.2,3.8,74.6c2.3,2.1,5,3.9,7.9,5.1c0.1,0.5,0.1,1.1,0.2,1.6
		c0.1,0.6,0.1,1.4,0.2,2.2c-2.8,1.3-7.9,6.2-9,25.7c0,0,1.5,14.6-2.3,21.5s-1.5,26.9,10,29.2c7.4,1.4,14.9,1.4,22.3,0
		c0,0,5.4,0,1.5-19.2l-0.7-4.9c-0.1-9.5,0.3-19.7,2.2-22.8c3.8-6.2-1.5-12.3-1.5-12.3s-0.4,0.2-1,0.5c-1-5.3-2.3-14-1.8-20.5
		c0-0.6,0.1-1.1,0.2-1.6c2.3-1.2,4.5-2.7,6.5-4.5v-73.1c0,0-0.8-112.3,7.7-114.7c0,0,3.8,40.8,2.3,60.8s2.3,41.6,2.3,41.6l1.5,81.6
		c0,0,1.5,0.7,3.9,1.5l-0.2,1.5c-0.9,9.1-2.4,22.8-3.8,31.1c-1.9,0.7-3.3,2.4-3.7,4.3c-2.3,7.7-0.8,26.9-5.4,32.3
		c-2.7,3.2-6,9.6-4.4,14.1c-1,4-0.6,10.2,11.3,11.3c17.7,1.5,25.4-7.7,25.4-7.7s2.3-3.8,0-10.8s0.8-19.2,0.8-19.2s1.7-10.4-1.1-11.8
		c-0.2-1.2-0.4-2-0.4-2c0-2.4-0.8-4.7-2.4-6.4c-0.1-8.1,0.3-23,3.1-32.8c0.2-0.6,0.3-1.1,0.5-1.6c2.3-0.4,4.5-1.2,6.5-2.3
		c0,0-0.8-17.7,4.6-30s2.3-61.6,2.3-61.6s-2.3-12.9,0.9-23.4c3.7-11.6,6.5-23.5,8.4-35.6l4.5-31.8c0,0,11.9-38.7-3.8-78.4
		c-0.6-1.6-1.3-3.3-2.1-4.9c-1.3-2.9-2.8-5.7-4.4-8.6c-0.3-0.4-0.5-0.9-0.8-1.3c1.7-0.4,2.6-0.7,2.6-0.7s-20.8-48.4-7.7-73.1
		c0,0,7.4-7.4,8.4-15.5c1.3-10.7,2.7-21.4,5.1-31.9l0.4-1.9c0,0,0.1-0.4,0.2-1c0.3-0.2,0.6-0.4,0.9-0.6
		c22.2-16.2,41.3-83.8,41.3-83.8l6.2-11.6l2.9-6.2l-6,52.4l46.9,11.6l30-2.3l-0.1-6.5l22.9-1.8L755.3,230.3z M457.8,77.7l-8.3-1.2
		C448,68.9,447,64,447,64c1.7-2.2,3.3-4.5,4.6-6.9C455.6,63.2,457.2,71.6,457.8,77.7L457.8,77.7z M426.6,61.5c0.6,2,1.1,3.3,1.1,3.3
		l1.1,8.7l-2.8-0.4C425.8,69.2,426,65.3,426.6,61.5L426.6,61.5z M689.6,122.1l-11.3,1.5c1.6-4.7,3.6-12.3,2.4-19.3
		c2.2-2.1,3.4-5,3.1-8.1C690.5,104.3,689.9,118.4,689.6,122.1L689.6,122.1z M670.9,110.1c3.4-1.1,6.5-2.9,9.2-5.2
		c1,6.8-1.1,14.3-2.6,18.7l-10.5,1.3l-2.9-0.6L670.9,110.1z"/>
	<polygon class="st7" points="753.3,232.3 725.8,243.8 693.9,132.5 701.4,123.6 715.1,121.5 	"/>
	<polygon class="st8" points="753.3,232.3 725.8,243.8 693.9,132.5 701.4,123.6 715.1,121.5 	"/>
	<polygon class="st7" points="701.4,123.6 653.7,129.7 678.2,247.5 725.8,243.8 	"/>
	<polygon class="st9" points="701.4,123.6 653.7,129.7 678.2,247.5 725.8,243.8 	"/>
	<path class="st10" d="M689,126.3l-0.8-0.1c0-0.3,3.2-28.1-14.3-31.6l0.1-0.7C692.3,97.5,689.1,126,689,126.3z"/>
	<rect x="512.7" y="207.4" class="st11" width="52.5" height="76.9"/>
	<rect x="512.7" y="207.4" class="st12" width="52.5" height="76.9"/>
	<polygon class="st7" points="703.3,251.9 673.6,254.2 678.2,138.5 688.1,132.4 701.8,134.7 	"/>
	<polygon class="st12" points="703.3,251.9 673.6,254.2 678.2,138.5 688.1,132.4 701.8,134.7 	"/>
	<polygon class="st7" points="688.1,132.4 640.9,123.3 627.2,242.8 673.6,254.2 	"/>
	<polygon class="st7" points="410.3,75.4 403.4,75.4 389.7,194.8 420.2,193.3 	"/>
	<polygon class="st12" points="410.3,75.4 403.4,75.4 389.7,194.8 420.2,193.3 	"/>
	<polygon class="st7" points="408,73.8 399.6,194.1 472.7,201.7 481.1,84.5 	"/>
	<path class="st13" d="M496.3,697.9c0,0-9.1-0.8-10.7,25.9c0,0,1.5,14.5-2.3,21.3c-3.8,6.9-1.5,26.6,9.9,28.9
		c7.3,1.3,14.8,1.3,22.1,0c0,0,5.3,0,1.5-19l-7.6-55.6L496.3,697.9z"/>
	<path class="st14" d="M496.3,697.9c0,0-9.1-0.8-10.7,25.9c0,0,1.5,14.5-2.3,21.3c-3.8,6.9-1.5,26.6,9.9,28.9
		c7.3,1.3,14.8,1.3,22.1,0c0,0,5.3,0,1.5-19l-7.6-55.6L496.3,697.9z"/>
	<path class="st15" d="M544.1,258.4c-0.7,11.3,1.6,17.9,1.6,17.9l-19.8,5.3c0,0-32.7,4.6-19.8-8.4c4.5-4.5,6.7-12.1,7.6-20.3
		c0.6-5.5,0.8-11.1,0.6-16.7c-0.2-5.2-0.6-10.4-1.3-15.6c0,0,47.9-16.7,37.3,10.7c-1.9,5-3.5,10.1-4.6,15.3
		C544.9,250.5,544.4,254.5,544.1,258.4z"/>
	<path class="st16" d="M550.3,231.4c-1.9,5-3.5,10.1-4.6,15.3c-11.6,2.5-23.5-1.5-31.4-10.3c-0.2-5.2-0.6-10.4-1.3-15.6
		C513,220.7,561,204,550.3,231.4z"/>
	
		<ellipse transform="matrix(0.3827 -0.9239 0.9239 0.3827 135.7972 629.4427)" class="st15" cx="538.9" cy="213.1" rx="32.7" ry="32.7"/>
	<path class="st15" d="M481.1,229.1v9.9l-16.7,43.4l-4.6-4.6c-0.3-0.3-0.5-0.6-0.7-0.9C448,261.2,440,156.8,440,156.8l-10.6-88.3
		c0,0-11.4-27.4,13.7-25.9s5.3,25.1,5.3,25.1s16.7,83.7,14.5,86.8c-2.3,3,0,12.2,0,12.2s6.9,17.5,6.1,30.4
		C468.1,210,481.1,229.1,481.1,229.1z"/>
	<path class="st15" d="M669.8,113.4l-39.6,83.7l-6.1,11.4c0,0-19,66.9-40.8,82.9c-1.3,0.9-2.6,1.7-4.1,2.3l-4.6-36.5l4.2-10.6
		l0.3-0.8c4.9-4.8,8.8-10.5,11.4-16.7c4.6-10.7,17.5-32,17.5-32s2.3-6.1,2.3-10.7s43.4-79.9,43.4-79.9s3.8-34.2,22.1-17.5
		C694.2,105.8,669.8,113.4,669.8,113.4z"/>
	<path class="st15" d="M516.8,720.7c0,0-25.9,10.7-22.8,0.8c1.9-6,1.2-17.3,0.3-25.3c-0.5-5.2-1.1-8.9-1.1-8.9l22.1,2.3
		c-0.8,1.9-1.2,4-1.3,6.1C513.3,705.7,516.8,720.7,516.8,720.7z"/>
	<path class="st15" d="M557.1,691.1c-4,13.9-2.9,38-2.9,38s-23.6,3-21.3-3c1.6-4.2,3.9-25.1,5.2-37.3c0.6-5.4,0.9-9.1,0.9-9.1
		l21.3,4.6C558.8,686.3,557.7,688.6,557.1,691.1z"/>
	<path class="st16" d="M493.2,687.2l22.1,2.3c-0.8,1.9-1.2,4-1.3,6.1c-6.1,3.2-13.4,3.4-19.7,0.6C493.8,691,493.2,687.2,493.2,687.2
		z"/>
	<path class="st16" d="M560.2,684.2c-1.5,2.1-2.5,4.4-3.2,6.9c-7.2,1.2-14.7-0.9-19.1-2.4c0.6-5.4,0.9-9.1,0.9-9.1L560.2,684.2z"/>
	<path class="st13" d="M584.6,506.9l-4.5,31.4c-1.8,11.9-4.6,23.7-8.3,35.2c-3.2,10.4-0.9,23.2-0.9,23.2s3,48.7-2.3,60.9
		s-4.6,29.7-4.6,29.7c-12.2,6.9-29.7-1.5-29.7-1.5l-1.5-80.7c0,0-3.8-21.3-2.3-41.1s-2.3-60.1-2.3-60.1
		c-8.4,2.3-7.6,113.4-7.6,113.4v72.3c-18.3,16-34.2,0-34.2,0c-6.1-18.3-3.8-73.8-3.8-73.8l-2.3-32.7c0,0-8.4-40.3-13.7-96.7
		c-1.6-15.8-1.8-31.8-0.7-47.6c0.1-1.7,0.3-3.4,0.5-5c0.7-7.2,2-14.3,3.9-21.3c0.6-2.3,1.4-4.6,2.3-6.7l81.8,3.8l4.8,0.2l11.6,0.5
		c1.3,1.9,2.5,3.8,3.6,5.8c1.6,2.8,3,5.6,4.3,8.4c0.7,1.6,1.4,3.3,2.1,4.9C596.4,468.6,584.6,506.9,584.6,506.9z"/>
	<path class="st16" d="M494.8,413.3c0,0-3.6,35.8-28.8,25.4c0.1-1.7,0.3-3.4,0.5-5c5.9,1.6,22.4,3.8,23-20.5L494.8,413.3z"/>
	<path class="st16" d="M580.8,429.3c-17.5,6.2-24.1-10.4-26.3-19.9l4.8,0.2c2.6,14.9,13.1,15.8,19.5,14.7
		C579.5,426.1,580.2,427.7,580.8,429.3z"/>
	<path class="st13" d="M503.1,716.7c-3.9-0.6-9.8-2.7-8-10.2c0,0-7.2-2.5-6.4,27.2c0,0-0.8,14.5-2.3,17.5c-1.5,3.1,0,21.3,16,19.8
		c0,0,11.4,3.8,14.5-2.3c0,0-2.3-35,1.5-41.1s-1.5-12.2-1.5-12.2s-5.4,3-9.3,2.1C506.1,717.1,504.6,716.9,503.1,716.7z"/>
	<path class="st13" d="M522.2,766.4c0,0-7.6,12.9,9.9,14.5c17.5,1.5,25.1-7.6,25.1-7.6s2.3-3.8,0-10.7s0.8-19,0.8-19
		s2.3-14.5-3-11.4C549.6,735.2,522.2,766.4,522.2,766.4z"/>
	<path class="st14" d="M522.2,766.4c0,0-7.6,12.9,9.9,14.5c17.5,1.5,25.1-7.6,25.1-7.6s2.3-3.8,0-10.7s0.8-19,0.8-19
		s2.3-14.5-3-11.4C549.6,735.2,522.2,766.4,522.2,766.4z"/>
	<path class="st13" d="M542,719.9c0,0-9.1-3.8-11.4,3.8c-2.3,7.6-0.8,26.6-5.3,32s-10.7,19.8,7.6,19s22.1-6.9,22.1-6.9
		s-0.8-19,1.5-24.4s0-13.7,0-13.7S557.2,719.1,542,719.9z"/>
	<circle class="st12" cx="427.8" cy="84.5" r="1.5"/>
	<circle class="st12" cx="459.8" cy="88.3" r="1.5"/>
	<path class="st10" d="M460.1,88.3h-0.8c0-0.3,0.5-32.4-17.9-35.4c-3.6-0.6-6.6,0.2-8.8,2.4c-7.6,7.5-4.5,28.9-4.4,29.1l-0.7,0.1
		c-0.1-0.9-3.2-21.9,4.7-29.7c2.4-2.4,5.6-3.3,9.5-2.7C460.7,55.2,460.1,88,460.1,88.3z"/>
	<path class="st10" d="M675.5,131.1l-0.7-0.3c0.1-0.3,11.8-25.7-3.7-34.5l0.4-0.7C687.6,104.8,675.6,130.8,675.5,131.1z"/>
	<path class="st16" d="M545.8,276.3l-19.8,5.3c0,0-32.7,4.6-19.8-8.4c4.5-4.5,6.7-12.1,7.6-20.3c5.2,8.1,11.4,5.8,11.4,5.8l18.9-0.4
		h0.1C543.5,269.7,545.8,276.3,545.8,276.3z"/>
	<path class="st16" d="M583.3,291.4c-1.3,0.9-2.6,1.7-4.1,2.3l-4.6-36.5l4.2-10.6l1.1-0.8C589.4,248.5,584.5,283.5,583.3,291.4z"/>
	<path class="st16" d="M481.1,229.1v9.9l-16.7,43.4l-4.6-4.6c-0.3-0.3-0.5-0.6-0.7-0.9C461,254.3,481.1,229.1,481.1,229.1z"/>
	<path class="st16" d="M574.4,416c-10.6,2.7-66.2,15.7-82.7,3.4c-6.5-4.9-14.2-6.7-21.3-6.9c0.6-2.3,1.4-4.6,2.3-6.7l81.8,3.8
		l4.8,0.2l11.6,0.5C572.1,412.1,573.3,414,574.4,416z"/>
	<path class="st15" d="M431.2,49.1c0,0,11.4,19,19,0"/>
	<path class="st15" d="M666,88.3c0,0-4.6,22.8,13.7,12.2"/>
	<g class="st17">
		<path d="M524.7,511.3c-0.4-4.6-0.6-7.5-0.6-7.5c-8.4,2.3-7.6,113.4-7.6,113.4v72.3c-5.3,4.7-10.5,6.6-15.1,7c5.5,0.5,12-1.1,19-7
			v-72.3C520.3,617.2,519.7,536.7,524.7,511.3z"/>
		<path d="M580.4,429.3c-0.6-1.6-1.3-3.3-2.1-4.9c-1.3-2.8-2.7-5.7-4.3-8.4c-1.1-1.9-2.3-3.9-3.6-5.8l-11.6-0.5l-4.8-0.2l-81.8-3.8
			l-0.1,0.2l78,3.6l4.8,0.2l11.6,0.5c1.3,1.9,2.5,3.8,3.6,5.8c1.6,2.8,3,5.6,4.3,8.4c0.7,1.6,1.4,3.3,2.1,4.9
			c15.6,39.3,3.7,77.5,3.7,77.5l-4.5,31.4c-1.8,11.9-4.6,23.7-8.3,35.2c-3.2,10.4-0.9,23.2-0.9,23.2s3,48.7-2.3,60.9
			s-4.6,29.7-4.6,29.7c-2.9,1.6-6.2,2.5-9.5,2.6c4.6,0.4,9.2-0.5,13.3-2.6c0,0-0.8-17.5,4.6-29.7c5.3-12.2,2.3-60.9,2.3-60.9
			s-2.3-12.8,0.9-23.2c3.7-11.5,6.5-23.3,8.3-35.2l4.5-31.4C584.2,506.9,596,468.6,580.4,429.3z"/>
	</g>
	<path class="st18" d="M544.1,259.9c10.5,5,35.2-14.1,35.2-14.1c10.7,3,3,47.2,3,47.2l-0.4,1.8c-2.3,10.4-3.7,21-5,31.6
		c-1,8-8.3,15.3-8.3,15.3c-12.9,24.4,7.6,72.3,7.6,72.3s-66.2,17.5-84.5,3.8s-45.7-3-45.7-3c12.9-11.4,13.7-82.2,13.7-82.2v-54.7
		c1.5-22.8,22.1-48.7,22.1-48.7c8.4,23.6,31.8,25.2,31.8,25.2c5.2,8.4,11.6,6.1,11.6,6.1L544.1,259.9z"/>
	<path class="st16" d="M530.4,167c-2.6-0.6-5.3-0.6-7.9,0c-8.3,2.3-10.9,12.7-17.3,18.4c-2.3,2.1-5.1,3.5-7.2,5.8
		c-3.7,4.1-4.5,10.1-3.7,15.5s2.9,10.6,4.2,15.9c1.3,5.3,1.8,10.9,1.5,16.3c0,1.8-0.5,3.6-1.4,5.2c-1.5,2.1-4.3,2.8-6.3,4.5
		c-6,5.2-1.1,16-5.5,22.6c-1.9,2.9-5.5,4.8-6.2,8.1c-0.5,2.4,0.6,4.8,1.7,7c2.8,5.8,5.7,11.7,10.5,16.1s10.7,6.5,16.6,8.7
		c1.8,0.7,4,1.2,5.4-0.1c1.7-1.6,0.4-4.4-0.7-6.5c-1.8-3.2-3.3-7-2.2-10.5c1.1-3.6,4.5-5.9,6.8-8.9c6-7.7,4-18.7,1.1-28
		c-1.3-3.9-2.7-8.1-1.6-12c0.5-1.7,1.3-3.3,1.9-4.9c2.5-7.5-1.7-15.6-0.5-23.4c0.6-3,1.7-6,3.2-8.7l6.7-14.4c0.7-1.7,1.7-3.3,3-4.7
		c2.1-1.7,4.7-2.5,7.4-2.3c5.5,0.1,10.7,2.5,14.4,6.5c7.2,8,6.7,20,5.8,30.6l-0.6,7.7c-0.5,5.5-1.1,11.4-4.5,15.7
		c-2.7,3.3-7.1,5.6-8.2,9.7c-1,3.6,0.9,7.4-0.1,11c-1.4,5.3-8,7.3-11.5,11.6c-3,3.8-3.3,9.1-0.9,13.3c1.3,2.1,3.4,4.2,3.2,6.7
		c-0.2,2-2,3.6-2,5.6c0.2,1.8,1.5,3.4,3.2,3.9s3.6,0.5,5.3,0.3l18.9-1.7c1.2,0,2.3-0.3,3.4-0.9c1.3-0.9,1.7-2.7,1.9-4.3
		c0.8-6.7-1.1-14.1,2.3-19.9c1.1-1.9,2.6-3.5,3.8-5.3c6.4-10.1-0.1-23.8,3.5-35.3c1.7-5.4,5.5-10.1,6.6-15.7
		c1.4-7.5-2.5-14.7-4-22.1c-1.5-7.6-0.7-16-4.8-22.6c-3.1-5.1-8.7-8.2-14.4-9.6c-5.3-1.3-10.5-0.9-15.8-1.4
		C540,169.9,535.3,167.8,530.4,167z"/>
	<path class="st11" d="M530.4,165.5c-2.6-0.6-5.3-0.6-7.9,0c-8.3,2.3-10.9,12.7-17.3,18.4c-2.3,2.1-5.1,3.5-7.2,5.8
		c-3.7,4.1-4.5,10.1-3.7,15.5s2.9,10.6,4.2,15.9c1.3,5.3,1.8,10.9,1.5,16.3c0,1.8-0.5,3.6-1.4,5.2c-1.5,2.1-4.3,2.8-6.3,4.5
		c-6,5.2-1.1,16-5.5,22.6c-1.9,2.9-5.5,4.8-6.2,8.1c-0.5,2.4,0.6,4.8,1.7,7c2.8,5.8,5.7,11.7,10.5,16.1c4.8,4.3,10.7,6.5,16.6,8.7
		c1.8,0.7,4,1.2,5.4-0.1c1.7-1.6,0.4-4.4-0.7-6.5c-1.8-3.2-3.3-7-2.2-10.5c1.1-3.6,4.5-5.9,6.8-8.9c6-7.7,4-18.7,1.1-28
		c-1.3-3.9-2.7-8.1-1.6-12c0.5-1.7,1.3-3.3,1.9-4.9c2.5-7.5-1.7-15.6-0.5-23.4c0.6-3,1.7-6,3.2-8.7l6.7-14.4c0.7-1.7,1.7-3.3,3-4.7
		c2.1-1.7,4.7-2.5,7.4-2.3c5.5,0.1,10.7,2.5,14.4,6.5c7.2,8,6.7,20,5.8,30.6l-0.6,7.7c-0.5,5.5-1.1,11.4-4.5,15.7
		c-2.7,3.3-7.1,5.6-8.2,9.7c-1,3.6,0.9,7.4-0.1,11c-1.4,5.3-8,7.3-11.5,11.6c-3,3.8-3.3,9.1-0.9,13.3c1.3,2.1,3.4,4.2,3.2,6.7
		c-0.2,2-2,3.6-2,5.6c0.2,1.8,1.5,3.4,3.2,3.9s3.6,0.5,5.3,0.3l18.9-1.7c1.2,0,2.3-0.3,3.4-0.9c1.3-0.9,1.7-2.7,1.9-4.3
		c0.8-6.7-1.1-14.1,2.3-19.9c1.1-1.9,2.6-3.5,3.8-5.3c6.4-10.1-0.1-23.8,3.5-35.3c1.7-5.4,5.5-10.1,6.6-15.7
		c1.4-7.5-2.5-14.7-4-22.1c-1.5-7.6-0.7-16-4.8-22.6c-3.1-5.1-8.7-8.2-14.4-9.6c-5.3-1.3-10.5-0.9-15.8-1.4
		C540,168.4,535.3,166.3,530.4,165.5z"/>
	<path class="st16" d="M489.8,339.8c0,0,15.2,4.6,37.3-5.3h11.4c0,0,0.8,10.7,30.4,6.1"/>
</g>
<g>
	<ellipse class="st4" cx="679.4" cy="727.1" rx="19.7" ry="1.1"/>
	<g>
		<path class="st19" d="M676.6,699.9c4.7,14.1,3,27.3,3,27.3s-9.2-9.6-13.9-23.7c-4.7-14.1-3-27.3-3-27.3S671.9,685.8,676.6,699.9z"
			/>
		<path class="st19" d="M682.7,699.9c-4.7,14.1-3,27.3-3,27.3s9.2-9.6,13.9-23.7c4.7-14.1,3-27.3,3-27.3S687.3,685.8,682.7,699.9z"
			/>
		<path class="st4" d="M684.5,700c0.3,14.8-5.2,27-5.2,27s-6-11.9-6.3-26.7s5.2-27,5.2-27S684.2,685.2,684.5,700z"/>
		<circle class="st19" cx="678.8" cy="686.9" r="1.5"/>
		<circle class="st19" cx="676" cy="698.5" r="0.8"/>
		<circle class="st4" cx="666.2" cy="690.5" r="0.8"/>
		<circle class="st4" cx="694.6" cy="682.7" r="0.8"/>
		<circle class="st4" cx="670.3" cy="698.1" r="0.8"/>
		<circle class="st4" cx="687.3" cy="693.4" r="0.8"/>
		<circle class="st4" cx="670.8" cy="710" r="0.8"/>
		<circle class="st4" cx="688.1" cy="705.4" r="0.8"/>
		<circle class="st19" cx="680.3" cy="706.2" r="0.8"/>
	</g>
</g>
<g>
	<ellipse class="st4" cx="230.4" cy="725.5" rx="16.4" ry="0.9"/>
	<g>
		<path class="st19" d="M228,702.8c3.9,11.7,2.5,22.7,2.5,22.7s-7.7-8-11.6-19.7c-3.9-11.7-2.5-22.7-2.5-22.7S224.1,691.1,228,702.8
			z"/>
		<path class="st19" d="M233.1,702.8c-3.9,11.7-2.5,22.7-2.5,22.7s7.7-8,11.6-19.7c3.9-11.7,2.5-22.7,2.5-22.7
			S237,691.1,233.1,702.8z"/>
		<path class="st4" d="M234.6,702.9c0.3,12.3-4.3,22.4-4.3,22.4s-5-9.9-5.2-22.2s4.3-22.4,4.3-22.4S234.4,690.6,234.6,702.9z"/>
		<circle class="st19" cx="229.9" cy="692" r="1.2"/>
		<circle class="st19" cx="227.5" cy="701.7" r="0.7"/>
		<circle class="st4" cx="219.3" cy="695" r="0.7"/>
		<circle class="st4" cx="243" cy="688.5" r="0.7"/>
		<circle class="st4" cx="222.8" cy="701.3" r="0.7"/>
		<circle class="st4" cx="236.9" cy="697.4" r="0.7"/>
		<circle class="st4" cx="223.2" cy="711.2" r="0.7"/>
		<circle class="st4" cx="237.6" cy="707.4" r="0.7"/>
		<circle class="st19" cx="231.1" cy="708" r="0.7"/>
	</g>
</g>
<g>
	<ellipse class="st4" cx="114.3" cy="765" rx="36" ry="2"/>
	<g>
		<path class="st19" d="M109.2,715.2c8.5,25.7,5.5,49.8,5.5,49.8s-16.8-17.5-25.4-43.2c-8.5-25.7-5.5-49.8-5.5-49.8
			S100.6,689.5,109.2,715.2z"/>
		<path class="st19" d="M120.3,715.2c-8.5,25.7-5.5,49.8-5.5,49.8s16.8-17.5,25.4-43.2c8.5-25.7,5.5-49.8,5.5-49.8
			S128.8,689.5,120.3,715.2z"/>
		<path class="st4" d="M123.7,715.5c0.6,27.1-9.4,49.2-9.4,49.2s-10.9-21.7-11.5-48.8s9.4-49.2,9.4-49.2S123.1,688.4,123.7,715.5z"
			/>
		<circle class="st19" cx="113.2" cy="691.6" r="2.6"/>
		<circle class="st19" cx="108.1" cy="712.8" r="1.5"/>
		<circle class="st4" cx="90.1" cy="698.2" r="1.5"/>
		<circle class="st4" cx="142.1" cy="683.9" r="1.5"/>
		<circle class="st4" cx="97.8" cy="712" r="1.5"/>
		<circle class="st4" cx="128.7" cy="703.5" r="1.5"/>
		<circle class="st4" cx="98.7" cy="733.7" r="1.5"/>
		<circle class="st4" cx="130.2" cy="725.3" r="1.5"/>
		<circle class="st19" cx="115.9" cy="726.7" r="1.5"/>
	</g>
</g>
<g>
	<path class="st3" d="M928.1,724.8l-52.7-37.3c17.8-17.3,33.9-42,49.4-69.8l52.7,37.3C956.5,678.8,938.6,702.3,928.1,724.8z"/>
	<circle class="st20" cx="928.1" cy="669.5" r="15.6"/>
	<path class="st21" d="M857,635.4h-10.8c-0.8,0-1.4,0.6-1.4,1.4v4.8c0,0.8,0.6,1.4,1.4,1.4h1.8v7.1h7.2V643h1.8
		c0.8,0,1.4-0.6,1.4-1.4l0,0v-4.8C858.4,636,857.8,635.4,857,635.4z"/>
	<path class="st22" d="M867.8,678.9c-6.6-9.7-10-21.3-9.7-33c0-0.6-0.4-1-0.9-1.2v-2.1h-11.4v2h-0.2c-0.6,0-1.2,0.5-1.2,1.2l0,0v0.1
		c0.9,12.6-2.1,23.8-9.1,33.8c-0.4,0.6-0.6,1.3-0.6,2l1.3,38.7c0.1,1.8,1.5,3.2,3.3,3.2h25.9c1.8,0,3.3-1.5,3.3-3.3l0.5-37.6
		C869,681.4,868.6,680,867.8,678.9z"/>
	<path class="st12" d="M854.7,636.9c0,1.7-1.4,3.1-3.1,3.1s-3.1-1.4-3.1-3.1"/>
	<path class="st20" d="M863.7,691.7h-22.5c-1.3,0-2.3,1-2.3,2.3c0,0.1,0,0.2,0,0.4l3.4,22.1h19.5l4.1-22c0.2-1.3-0.6-2.5-1.8-2.7
		C864,691.8,863.9,691.7,863.7,691.7L863.7,691.7z"/>
	<path class="st7" d="M826.1,724.7h-64.6c4.5-24.4,3.5-53.9,0-85.6h64.6C822.7,670.8,821.7,700.3,826.1,724.7z"/>
	<circle class="st20" cx="794.2" cy="679.6" r="15.6"/>
	<polygon class="st4" points="959.7,730.4 754.6,730.4 711.1,525 674.1,525 674.1,515.8 718.6,515.8 762,721.1 959.7,721.1 	"/>
	<circle class="st4" cx="784.6" cy="748.1" r="19.7"/>
	<circle class="st4" cx="932" cy="748.1" r="19.7"/>
	<path class="st4" d="M955.9,726H756.4l-35.2-174H989c5.2,0,9.5,4.2,9.5,9.5c0,0.5,0,1-0.1,1.5l-33,155.1
		C964.6,722.6,960.6,726,955.9,726z M758.6,723.4H956c3.4,0,6.2-2.4,6.7-5.8l33-155.1c0.6-3.7-2-7.2-5.7-7.8
		c-0.4-0.1-0.7-0.1-1.1-0.1H724.4L758.6,723.4z"/>
	<polygon class="st4" points="795.2,725.5 772.1,553.6 774.7,553.1 797.8,725 	"/>
	<polygon class="st4" points="923.4,724.1 920.8,723.7 943.2,553.1 945.8,553.6 	"/>
	<rect x="859.7" y="553.3" class="st4" width="2.6" height="171.9"/>
	
		<rect x="860.7" y="473.6" transform="matrix(2.421337e-03 -1 1 2.421337e-03 258.8646 1461.572)" class="st4" width="2.6" height="254.8"/>
	
		<rect x="747.6" y="681.5" transform="matrix(1 -6.835543e-03 6.835543e-03 1 -4.6473 5.8912)" class="st4" width="223.8" height="2.6"/>
</g>
<g>
	<circle class="st16" cx="806.2" cy="184.5" r="19.8"/>
	<circle class="st7" cx="813.5" cy="175.5" r="19.8"/>
</g>
<g>
	<circle class="st16" cx="853" cy="380.5" r="11.2"/>
	<circle class="st7" cx="857.1" cy="375.4" r="11.2"/>
</g>
<g>
	<circle class="st16" cx="795.6" cy="281.9" r="13.9"/>
	<circle class="st7" cx="800.7" cy="275.6" r="13.9"/>
</g>
<g>
	<circle class="st16" cx="682.8" cy="398.4" r="8.1"/>
	<circle class="st22" cx="685.8" cy="394.7" r="8.1"/>
</g>
<g>
	<circle class="st16" cx="819.2" cy="339.3" r="8.1"/>
	<circle class="st22" cx="822.2" cy="335.6" r="8.1"/>
</g>
<g>
	<path class="st16" d="M734.3,434.8h31c2.1-12.2,2.1-24.8,0-37h-31C737.8,409.9,737.8,422.7,734.3,434.8z"/>
	<path class="st7" d="M738.8,428.8h31c2.1-12.2,2.1-24.8,0-37h-31C742.3,403.9,742.3,416.7,738.8,428.8z"/>
</g>
<g>
	<path class="st16" d="M845.5,502.4h-23.6c-1.6-9.3-1.6-18.9,0-28.2h23.6C842.8,483.4,842.8,493.2,845.5,502.4z"/>
	<path class="st22" d="M848.9,498.9h-23.6c-1.6-9.3-1.6-18.9,0-28.2h23.6C846.3,480,846.3,489.7,848.9,498.9z"/>
</g>
<g>
	<path class="st5" d="M305.8,741.9c0,0-42.3-2.5-37.3,27.1c0,0-1,5.2,3.8,7.6c0,0,0.1-2.2,4.3-1.5c1.5,0.3,3.1,0.3,4.6,0.2
		c2.1-0.1,4.1-1,5.6-2.3l0,0c0,0,11.9-4.9,16.5-24.3c0,0,3.4-4.2,3.3-5.3l-7.1,3c0,0,2.4,5.2,0.5,9.4c0,0-0.2-9.2-1.6-9
		c-0.3,0-3.7,1.8-3.7,1.8s4.2,9,1,15.5c0,0,1.2-11-2.3-14.8l-5,2.9c0,0,4.9,9.3,1.6,16.8c0,0,0.8-11.6-2.6-16.1l-4.5,3.5
		c0,0,4.6,9.1,1.8,15.4c0,0-0.4-13.5-2.8-14.5c0,0-4,3.5-4.6,5c0,0,3.2,6.6,1.2,10.1c0,0-1.2-9-2.2-9c0,0-4,6-4.4,10
		c0,0,0.2-6.1,3.4-10.6c-2.3,0.4-4.4,1.5-6.1,3.2c0,0,0.6-4.2,7-4.6c0,0,3.3-4.5,4.2-4.8c0,0-6.4-0.5-10.3,1.2c0,0,3.4-4,11.5-2.2
		l4.5-3.7c0,0-8.4-1.2-12,0.1c0,0,4.1-3.5,13.2-1l4.9-2.9c0,0-7.2-1.5-11.5-1c0,0,4.5-2.4,12.9,0.2l3.5-1.6c0,0-5.3-1-6.8-1.2
		s-1.6-0.6-1.6-0.6c3.3-0.6,6.8-0.2,9.9,1.1C298.5,745.1,306,742.3,305.8,741.9z"/>
	<ellipse class="st1" cx="276.7" cy="779.1" rx="29.9" ry="5.1"/>
</g>
<g>
	<path class="st5" d="M347,722.3c0,0-21.5-1.6-18.9,16.5c0,0-0.5,3.2,1.9,4.6c0,0,0-1.3,2.2-0.9c0.8,0.2,1.6,0.2,2.3,0.1
		c1.1-0.1,2.1-0.6,2.9-1.4l0,0c0,0,6-3,8.4-14.8c0,0,1.7-2.6,1.7-3.2l-3.6,1.8c0,0,1.2,3.1,0.3,5.7c0,0-0.1-5.6-0.8-5.5
		c-0.1,0-1.9,1.1-1.9,1.1s2.1,5.5,0.5,9.4c0,0,0.6-6.7-1.2-9l-2.5,1.8c0,0,2.5,5.6,0.8,10.2c0,0,0.4-7.1-1.3-9.8l-2.3,2.2
		c0,0,2.3,5.6,0.9,9.4c0,0-0.2-8.2-1.4-8.8c0,0-2,2.1-2.3,3c0,0,1.6,4,0.6,6.2c0,0-0.6-5.5-1.1-5.5c0,0-2,3.7-2.2,6.1
		c0,0,0.1-3.7,1.7-6.5c-1.2,0.3-2.2,0.9-3.1,1.9c0,0,0.3-2.6,3.6-2.8c0,0,1.7-2.8,2.1-2.9c0,0-3.2-0.3-5.2,0.7c0,0,1.7-2.4,5.8-1.3
		l2.3-2.2c0,0-4.3-0.7-6.1,0.1c0,0,2.1-2.1,6.7-0.6l2.5-1.8c0,0-3.7-0.9-5.8-0.6c0,0,2.3-1.5,6.6,0.1l1.8-1c0,0-2.7-0.6-3.5-0.7
		c-0.8-0.1-0.8-0.4-0.8-0.4c1.7-0.3,3.4-0.1,5,0.7C343.2,724.3,347,722.6,347,722.3z"/>
	<ellipse class="st1" cx="332.2" cy="745" rx="15.2" ry="3.1"/>
</g>
<g>
	<path class="st5" d="M354,754c0,0-31.6-1.9-27.9,20.3c0,0-0.7,3.9,2.8,5.7c0,0,0.1-1.6,3.2-1.1c1.1,0.2,2.3,0.2,3.4,0.2
		c1.6-0.1,3-0.7,4.2-1.7l0,0c0,0,8.9-3.7,12.3-18.2c0,0,2.6-3.2,2.5-4l-5.3,2.2c0,0,1.8,3.9,0.4,7.1c0,0-0.2-6.9-1.2-6.7
		c-0.2,0-2.8,1.3-2.8,1.3s3.1,6.7,0.7,11.6c0,0,0.9-8.2-1.8-11.1l-3.7,2.2c0,0,3.7,6.9,1.2,12.6c0,0,0.6-8.7-2-12.1l-3.4,2.7
		c0,0,3.4,6.8,1.3,11.5c0,0-0.3-10.1-2.1-10.9c0,0-3,2.6-3.4,3.7c0,0,2.4,5,0.9,7.6c0,0-0.9-6.7-1.6-6.7c0,0-3,4.5-3.3,7.5
		c0,0,0.1-4.5,2.6-7.9c-1.7,0.3-3.3,1.1-4.5,2.4c0,0,0.5-3.1,5.2-3.4c0,0,2.5-3.4,3.1-3.6c0,0-4.8-0.4-7.7,0.9c0,0,2.6-3,8.6-1.6
		l3.4-2.7c0,0-6.3-0.9-9,0.1c0,0,3.1-2.6,9.9-0.7l3.7-2.2c0,0-5.4-1.2-8.6-0.7c0,0,3.4-1.8,9.7,0.1l2.6-1.2c0,0-3.9-0.7-5.1-0.9
		s-1.2-0.4-1.2-0.4c2.5-0.4,5.1-0.1,7.4,0.8C348.5,756.4,354.1,754.3,354,754z"/>
	<ellipse class="st1" cx="332.2" cy="781.9" rx="22.4" ry="3.8"/>
</g>
<g>
	<path class="st5" d="M686.3,735.3c0,0-24.4-1.5-21.6,15.7c0,0-0.6,3,2.2,4.4c0,0,0-1.3,2.5-0.8c0.9,0.1,1.8,0.2,2.7,0.1
		c1.2-0.1,2.3-0.6,3.2-1.3l0,0c0,0,6.9-2.8,9.5-14.1c0,0,2-2.5,1.9-3.1l-4.1,1.7c0,0,1.4,3,0.3,5.5c0,0-0.1-5.3-0.9-5.2
		c-0.2,0-2.1,1-2.1,1s2.4,5.2,0.6,8.9c0,0,0.7-6.4-1.4-8.6l-2.9,1.7c0,0,2.8,5.4,0.9,9.7c0,0,0.5-6.7-1.5-9.3l-2.6,2.1
		c0,0,2.7,5.3,1,8.9c0,0-0.2-7.8-1.6-8.4c0,0-2.3,2-2.7,2.9c0,0,1.8,3.8,0.7,5.9c0,0-0.7-5.2-1.3-5.2c0,0-2.3,3.5-2.5,5.8
		c0,0,0.1-3.5,2-6.1c-1.3,0.3-2.5,0.9-3.5,1.8c0,0,0.4-2.4,4-2.6c0,0,1.9-2.6,2.4-2.8c0,0-3.7-0.3-5.9,0.7c0,0,2-2.3,6.6-1.3
		l2.6-2.1c0,0-4.9-0.7-6.9,0.1c0,0,2.4-2,7.6-0.6l2.8-1.7c0,0-4.2-0.9-6.6-0.6c0,0,2.6-1.4,7.5,0.1l2-0.9c0,0-3-0.6-3.9-0.7
		c-0.9-0.1-0.9-0.3-0.9-0.3c1.9-0.3,3.9-0.1,5.7,0.6C682.1,737.2,686.4,735.6,686.3,735.3z"/>
	<ellipse class="st1" cx="669.5" cy="756.9" rx="17.3" ry="2.9"/>
</g>
<g>
	<path class="st5" d="M720.1,730.4c0,0-24.4-1.5-21.6,15.7c0,0-0.6,3,2.2,4.4c0,0,0-1.3,2.5-0.8c0.9,0.1,1.8,0.2,2.7,0.1
		c1.2-0.1,2.3-0.6,3.2-1.3l0,0c0,0,6.9-2.8,9.5-14.1c0,0,2-2.5,1.9-3.1l-4.1,1.7c0,0,1.4,3,0.3,5.5c0,0-0.1-5.3-0.9-5.2
		c-0.2,0-2.1,1-2.1,1s2.4,5.2,0.6,8.9c0,0,0.7-6.4-1.4-8.6l-2.9,1.7c0,0,2.8,5.4,0.9,9.7c0,0,0.5-6.7-1.5-9.3l-2.6,2.1
		c0,0,2.7,5.3,1,8.9c0,0-0.2-7.8-1.6-8.4c0,0-2.3,2-2.7,2.9c0,0,1.8,3.8,0.7,5.9c0,0-0.7-5.2-1.3-5.2c0,0-2.3,3.5-2.5,5.8
		c0,0,0.1-3.5,2-6.1c-1.3,0.3-2.5,0.9-3.5,1.8c0,0,0.4-2.4,4-2.6c0,0,1.9-2.6,2.4-2.8c0,0-3.7-0.3-5.9,0.7c0,0,2-2.3,6.6-1.3
		l2.6-2.1c0,0-4.9-0.7-6.9,0.1c0,0,2.4-2,7.6-0.6l2.8-1.7c0,0-4.2-0.9-6.6-0.6c0,0,2.6-1.4,7.5,0.1l2-0.9c0,0-3-0.6-3.9-0.7
		c-0.9-0.1-0.9-0.3-0.9-0.3c1.9-0.3,3.9-0.1,5.7,0.6C715.9,732.3,720.2,730.7,720.1,730.4z"/>
	<ellipse class="st1" cx="703.3" cy="752" rx="17.3" ry="2.9"/>
</g>
</svg>
